<svg width="393" height="393" viewBox="0 0 393 393" fill="none" xmlns="http://www.w3.org/2000/svg">
<mask id="path-1-inside-1_16_109" fill="white">
<path fill-rule="evenodd" clip-rule="evenodd" d="M196.5 393C305.024 393 393 305.024 393 196.5C393 87.976 305.024 0 196.5 0C87.976 0 0 87.976 0 196.5C0 239.578 13.862 279.419 37.3688 311.804L13.2238 385.469L99.415 367.38C128.053 383.686 161.189 393 196.5 393Z"/>
</mask>
<path fill-rule="evenodd" clip-rule="evenodd" d="M196.5 393C305.024 393 393 305.024 393 196.5C393 87.976 305.024 0 196.5 0C87.976 0 0 87.976 0 196.5C0 239.578 13.862 279.419 37.3688 311.804L13.2238 385.469L99.415 367.38C128.053 383.686 161.189 393 196.5 393Z" fill="#FFFAFA"/>
<path d="M37.3688 311.804L56.374 318.033L59.5562 308.324L53.5545 300.056L37.3688 311.804ZM13.2238 385.469L-5.78134 379.24L-16.5707 412.158L17.3317 405.043L13.2238 385.469ZM99.415 367.38L109.311 350L102.725 346.25L95.3072 347.807L99.415 367.38ZM373 196.5C373 293.978 293.978 373 196.5 373V413C316.07 413 413 316.07 413 196.5H373ZM196.5 20C293.978 20 373 99.0217 373 196.5H413C413 76.9304 316.07 -20 196.5 -20V20ZM20 196.5C20 99.0217 99.0217 20 196.5 20V-20C76.9304 -20 -20 76.9304 -20 196.5H20ZM53.5545 300.056C32.4438 270.971 20 235.218 20 196.5H-20C-20 243.938 -4.7197 287.866 21.1831 323.552L53.5545 300.056ZM32.229 391.699L56.374 318.033L18.3636 305.575L-5.78134 379.24L32.229 391.699ZM95.3072 347.807L9.11594 365.896L17.3317 405.043L103.523 386.954L95.3072 347.807ZM196.5 373C164.749 373 135.013 364.634 109.311 350L89.5192 384.761C121.093 402.738 157.628 413 196.5 413V373Z" fill="#FF8791" mask="url(#path-1-inside-1_16_109)"/>
<path d="M335 171.471C335 233.039 259.383 297.155 204.068 329C148.752 297.155 74.288 235.162 70 171.471C70 99.0097 140.886 46.6372 204.068 108.205C267.249 46.6374 335 99.0097 335 171.471Z" fill="url(#paint0_linear_16_109)"/>
<path d="M308 152.914C308 173.271 282.604 194.47 264.027 205C245.449 194.47 220.44 173.973 219 152.914C219 128.955 242.807 111.638 264.027 131.995C285.246 111.638 308 128.955 308 152.914Z" fill="white"/>
<defs>
<linearGradient id="paint0_linear_16_109" x1="75.1456" y1="192.246" x2="329.854" y2="193.113" gradientUnits="userSpaceOnUse">
<stop stop-color="#FFCDBF"/>
<stop offset="1" stop-color="#FF6774"/>
</linearGradient>
</defs>
</svg>
