<svg width="20" height="20" viewBox="0 0 20 20" fill="none" xmlns="http://www.w3.org/2000/svg">
<path d="M15.5583 1.66675H13.975C12.1583 1.66675 11.2 2.62508 11.2 4.44175V6.02508C11.2 7.84175 12.1583 8.80008 13.975 8.80008H15.5583C17.375 8.80008 18.3333 7.84175 18.3333 6.02508V4.44175C18.3333 2.62508 17.375 1.66675 15.5583 1.66675Z" fill="#F24E1E"/>
<path d="M6.03329 11.1917H4.44996C2.62496 11.1917 1.66663 12.15 1.66663 13.9667V15.55C1.66663 17.375 2.62496 18.3333 4.44163 18.3333H6.02496C7.84163 18.3333 8.79996 17.375 8.79996 15.5583V13.975C8.80829 12.15 7.84996 11.1917 6.03329 11.1917Z" fill="#F24E1E"/>
<path d="M5.24163 8.81675C7.21604 8.81675 8.81663 7.21617 8.81663 5.24175C8.81663 3.26733 7.21604 1.66675 5.24163 1.66675C3.26721 1.66675 1.66663 3.26733 1.66663 5.24175C1.66663 7.21617 3.26721 8.81675 5.24163 8.81675Z" fill="#F24E1E"/>
<path d="M14.7583 18.3334C16.7328 18.3334 18.3334 16.7328 18.3334 14.7583C18.3334 12.7839 16.7328 11.1833 14.7583 11.1833C12.7839 11.1833 11.1833 12.7839 11.1833 14.7583C11.1833 16.7328 12.7839 18.3334 14.7583 18.3334Z" fill="#F24E1E"/>
</svg>
