<svg width="20" height="20" viewBox="0 0 20 20" fill="none" xmlns="http://www.w3.org/2000/svg">
<path d="M13.4916 1.66675H6.50829C3.47496 1.66675 1.66663 3.47508 1.66663 6.50841V13.4834C1.66663 16.5251 3.47496 18.3334 6.50829 18.3334H13.4833C16.5166 18.3334 18.325 16.5251 18.325 13.4917V6.50841C18.3333 3.47508 16.525 1.66675 13.4916 1.66675ZM13.125 13.1251H6.87496C6.53329 13.1251 6.24996 12.8417 6.24996 12.5001C6.24996 12.1584 6.53329 11.8751 6.87496 11.8751H13.125C13.4666 11.8751 13.75 12.1584 13.75 12.5001C13.75 12.8417 13.4666 13.1251 13.125 13.1251ZM13.125 8.12508H6.87496C6.53329 8.12508 6.24996 7.84175 6.24996 7.50008C6.24996 7.15841 6.53329 6.87508 6.87496 6.87508H13.125C13.4666 6.87508 13.75 7.15841 13.75 7.50008C13.75 7.84175 13.4666 8.12508 13.125 8.12508Z" fill="#F24E1E"/>
</svg>
