<svg width="116" height="116" viewBox="0 0 116 116" fill="none" xmlns="http://www.w3.org/2000/svg">
    <g filter="url(#filter0_d_12_8699)">
        <circle cx="58" cy="54" r="38" fill="white"/>
    </g>
    <path d="M60.0519 54.0003L66.3082 47.7586C66.5821 47.4846 66.7361 47.113 66.7361 46.7256C66.7361 46.3381 66.5821 45.9665 66.3082 45.6925C66.0342 45.4186 65.6626 45.2646 65.2751 45.2646C64.8877 45.2646 64.5161 45.4186 64.2421 45.6925L58.0004 51.9488L51.7586 45.6925C51.4846 45.4186 51.1131 45.2646 50.7256 45.2646C50.3381 45.2646 49.9666 45.4186 49.6926 45.6925C49.4186 45.9665 49.2647 46.3381 49.2647 46.7256C49.2647 47.113 49.4186 47.4846 49.6926 47.7586L55.9489 54.0003L49.6926 60.2421C49.5562 60.3773 49.448 60.5383 49.3741 60.7156C49.3002 60.8929 49.2622 61.083 49.2622 61.2751C49.2622 61.4672 49.3002 61.6573 49.3741 61.8347C49.448 62.0119 49.5562 62.1729 49.6926 62.3081C49.8278 62.4445 49.9888 62.5527 50.1661 62.6266C50.3434 62.7005 50.5335 62.7385 50.7256 62.7385C50.9177 62.7385 51.1078 62.7005 51.2851 62.6266C51.4624 62.5527 51.6234 62.4445 51.7586 62.3081L58.0004 56.0518L64.2421 62.3081C64.3774 62.4445 64.5383 62.5527 64.7156 62.6266C64.8929 62.7005 65.0831 62.7385 65.2751 62.7385C65.4672 62.7385 65.6574 62.7005 65.8347 62.6266C66.012 62.5527 66.1729 62.4445 66.3082 62.3081C66.4445 62.1729 66.5528 62.0119 66.6266 61.8347C66.7005 61.6573 66.7385 61.4672 66.7385 61.2751C66.7385 61.083 66.7005 60.8929 66.6266 60.7156C66.5528 60.5383 66.4445 60.3773 66.3082 60.2421L60.0519 54.0003Z" fill="#E81111"/>
    <defs>
        <filter id="filter0_d_12_8699" x="0" y="0" width="116" height="116" filterUnits="userSpaceOnUse" color-interpolation-filters="sRGB">
            <feFlood flood-opacity="0" result="BackgroundImageFix"/>
            <feColorMatrix in="SourceAlpha" type="matrix" values="0 0 0 0 0 0 0 0 0 0 0 0 0 0 0 0 0 0 127 0" result="hardAlpha"/>
            <feOffset dy="4"/>
            <feGaussianBlur stdDeviation="10"/>
            <feComposite in2="hardAlpha" operator="out"/>
            <feColorMatrix type="matrix" values="0 0 0 0 0.087 0 0 0 0 0.0833333 0 0 0 0 0.266667 0 0 0 0.08 0"/>
            <feBlend mode="normal" in2="BackgroundImageFix" result="effect1_dropShadow_12_8699"/>
            <feBlend mode="normal" in="SourceGraphic" in2="effect1_dropShadow_12_8699" result="shape"/>
        </filter>
    </defs>
</svg>
