<svg width="60" height="90" viewBox="0 0 60 90" fill="none" xmlns="http://www.w3.org/2000/svg">
    <g clip-path="url(#clip0_1463_894)">
        <path d="M59.77 30.8275L49.8625 9.36C48.64 6.7125 45.9675 5 43.05 5H16.95C14.0325 5 11.36 6.7125 10.14 9.3575L0.23 30.8275C0.0775 31.155 0 31.5125 0 31.875V47.5C0 51.635 3.365 55 7.5 55H52.5C56.635 55 60 51.635 60 47.5V31.875C60 31.5125 59.9225 31.155 59.77 30.8275ZM14.68 11.4525C15.0875 10.57 15.9775 10 16.95 10H43.05C44.0225 10 44.9125 10.57 45.32 11.4525L53.88 30H48.7325C46.7875 30 45.1025 31.2525 44.5425 33.1175L41.86 42.055C41.7825 42.32 41.5425 42.5 41.265 42.5H18.735C18.4575 42.5 18.2175 42.32 18.1375 42.0525L15.455 33.1175C14.895 31.2525 13.2125 30 11.265 30H6.12L14.68 11.4525Z" fill="#DBDBDB"/>
    </g>
    <path d="M11.952 84V74.432H8.08V72.72H17.872V74.432H14V84H11.952ZM17.7275 84V76.176H19.6795V77.552C20.0635 76.624 20.8848 76.112 22.1435 76.016L22.7515 75.968L22.8795 77.664L21.7275 77.776C20.4155 77.904 19.7595 78.576 19.7595 79.792V84H17.7275ZM27.4361 84.16C26.6255 84.16 25.9215 83.9947 25.3241 83.664C24.7268 83.3333 24.2628 82.864 23.9321 82.256C23.6015 81.6373 23.4361 80.912 23.4361 80.08C23.4361 79.248 23.6015 78.528 23.9321 77.92C24.2628 77.312 24.7268 76.8427 25.3241 76.512C25.9215 76.1813 26.6255 76.016 27.4361 76.016C28.2468 76.016 28.9508 76.1813 29.5481 76.512C30.1455 76.8427 30.6095 77.312 30.9401 77.92C31.2708 78.528 31.4361 79.248 31.4361 80.08C31.4361 80.912 31.2708 81.6373 30.9401 82.256C30.6095 82.864 30.1455 83.3333 29.5481 83.664C28.9508 83.9947 28.2468 84.16 27.4361 84.16ZM27.4361 82.64C28.0335 82.64 28.5135 82.4267 28.8761 82C29.2388 81.5627 29.4201 80.9227 29.4201 80.08C29.4201 79.2267 29.2388 78.592 28.8761 78.176C28.5135 77.7493 28.0335 77.536 27.4361 77.536C26.8388 77.536 26.3588 77.7493 25.9961 78.176C25.6335 78.592 25.4521 79.2267 25.4521 80.08C25.4521 80.9227 25.6335 81.5627 25.9961 82C26.3588 82.4267 26.8388 82.64 27.4361 82.64ZM29.1801 73.44L30.5241 71.04H32.1881L30.3161 73.44H29.1801ZM24.7961 75.136L26.5561 72.528H28.3161L30.0761 75.136H28.7961L27.4361 73.616L26.0761 75.136H24.7961ZM33.0869 84V76.176H35.0389V77.392C35.3055 76.944 35.6629 76.6027 36.1109 76.368C36.5695 76.1333 37.0815 76.016 37.6469 76.016C39.4922 76.016 40.4149 77.088 40.4149 79.232V84H38.4149V79.328C38.4149 78.72 38.2975 78.2773 38.0629 78C37.8389 77.7227 37.4869 77.584 37.0069 77.584C36.4202 77.584 35.9509 77.7707 35.5989 78.144C35.2575 78.5067 35.0869 78.992 35.0869 79.6V84H33.0869ZM46.0943 87.04C45.3689 87.04 44.6863 86.9547 44.0463 86.784C43.4169 86.624 42.8623 86.3733 42.3823 86.032L42.9583 84.64C43.4063 84.9387 43.8863 85.1573 44.3983 85.296C44.9103 85.4453 45.4223 85.52 45.9343 85.52C47.3636 85.52 48.0783 84.832 48.0783 83.456V82.384C47.8543 82.8213 47.5076 83.168 47.0383 83.424C46.5796 83.68 46.0676 83.808 45.5023 83.808C44.7983 83.808 44.1849 83.648 43.6623 83.328C43.1396 82.9973 42.7343 82.5387 42.4463 81.952C42.1583 81.3653 42.0143 80.6827 42.0143 79.904C42.0143 79.1253 42.1583 78.448 42.4463 77.872C42.7343 77.2853 43.1396 76.832 43.6623 76.512C44.1849 76.1813 44.7983 76.016 45.5023 76.016C46.0889 76.016 46.6116 76.1493 47.0703 76.416C47.5289 76.672 47.8649 77.0187 48.0783 77.456V76.176H50.0303V83.216C50.0303 84.4853 49.6943 85.44 49.0223 86.08C48.3503 86.72 47.3743 87.04 46.0943 87.04ZM46.0463 82.288C46.6649 82.288 47.1556 82.0747 47.5183 81.648C47.8809 81.2213 48.0623 80.64 48.0623 79.904C48.0623 79.168 47.8809 78.592 47.5183 78.176C47.1556 77.7493 46.6649 77.536 46.0463 77.536C45.4276 77.536 44.9369 77.7493 44.5743 78.176C44.2116 78.592 44.0303 79.168 44.0303 79.904C44.0303 80.64 44.2116 81.2213 44.5743 81.648C44.9369 82.0747 45.4276 82.288 46.0463 82.288Z" fill="#DBDBDB"/>
    <defs>
        <clipPath id="clip0_1463_894">
            <rect width="60" height="60" fill="white"/>
        </clipPath>
    </defs>
</svg>
